<svg width="200" height="110" xmlns="http://www.w3.org/2000/svg">
 <title>PT Telekomunikasi Indonesia (Persero) Tbk - Telkom Indonesia (Logo)</title>
 <metadata id="metadata3935">image/svg+xmlPT Telekomunikasi Indonesia (Persero) Tbk - Telkom Indonesia (Logo)</metadata>
 <g>
  <title>Layer 1</title>
  <g id="svg_3">
   <g id="svg_1">
    <path id="path3115-0" d="m144.075439,28.003418c-14.047577,0 -25.43203,10.978058 -25.43203,24.532887s11.384453,24.548527 25.43203,24.548527s25.432022,-10.993706 25.432022,-24.548527s-11.384445,-24.532887 -25.432022,-24.532887zm-1.325241,7.856541c9.080307,0 16.439072,7.005867 16.439072,15.650478s-7.358765,15.650482 -16.439072,15.650482s-16.439072,-7.005863 -16.439072,-15.650482s7.358765,-15.650478 16.439072,-15.650478z" fill="#5c5c5c"/>
    <path id="path3912-9" fill="#d51100" d="m161.099121,1.041075c-0.809738,-0.024314 -1.463013,0.312924 -2.177185,0.804637c-0.874756,0.60224 -1.632141,1.578224 -2.08252,2.540022c-2.301987,4.916018 -4.478058,9.653318 -6.67366,14.372694c-0.539688,1.160103 -1.161469,2.457428 -2.098297,3.328907c-0.586929,0.546 -1.169174,1.038637 -1.940536,0.820389c-0.798035,-0.225813 -1.064041,-0.606583 -1.341003,-1.38835c-0.352493,-0.994766 -0.330872,-2.941988 -0.441757,-3.991478c-0.216675,-2.051072 0.053467,-4.158838 -0.473297,-6.153163c-0.247437,-0.936707 -1.086853,-3.020341 -2.382294,-3.092232c-1.981461,-0.109988 -3.411209,2.914775 -4.259705,4.606794c-1.983475,3.955432 -2.631149,8.382094 -2.587387,14.798285c0.004547,0.683876 0.054932,2.050968 0.054932,2.050968s2.82016,-0.948063 4.252075,-1.230579c0.827866,-0.163332 1.66925,-0.294928 2.524277,-0.378641s1.725189,-0.126213 2.603134,-0.126213s1.748108,0.042498 2.603134,0.126213s1.696411,0.215309 2.524261,0.378641c1.65567,0.326656 3.258987,0.799387 4.780365,1.419901s2.954056,1.374567 4.307007,2.256092s2.620087,1.887856 3.77066,2.997574c1.150513,1.109718 2.194,2.32354 3.107986,3.628639s1.691559,2.713184 2.334946,4.180798c0.643387,1.467663 1.144302,3.009384 1.483017,4.606792c0.169357,0.798679 0.307587,1.604637 0.394409,2.429611s0.126221,1.661324 0.126221,2.508522c0,0.847145 -0.039383,1.683384 -0.126221,2.508514c-0.086823,0.825085 -0.225052,1.646488 -0.394409,2.445415c-0.338745,1.597816 -0.83963,3.138378 -1.483017,4.6068c-0.257889,0.588551 -0.51738,1.124004 -0.820389,1.688129c0.0466,0.009434 0.25325,0.053745 0.299759,0.063107c2.884583,0.580837 5.660431,0.856533 8.598175,0.694172c4.562714,-0.252174 9.326172,-0.557907 13.347336,-2.729336c1.355804,-0.732189 3.143219,-1.820206 3.18689,-3.360413c0.039688,-1.400818 -1.373413,-2.444359 -2.57164,-3.171089c-1.206039,-0.731537 -2.989548,-0.825886 -4.38591,-1.025459c-2.077789,-0.297009 -3.862579,-0.029785 -6.073898,-0.283981c-1.800827,-0.207012 -4.474014,-0.566296 -4.859222,-2.429611c-0.367065,-1.775631 1.825653,-3.309368 3.123795,-4.575241c2.618973,-2.553856 5.916382,-4.29641 8.787476,-6.563103c3.312912,-2.615501 6.493439,-4.986496 9.497314,-7.951454c0.954941,-0.942461 1.876648,-1.670261 2.587387,-2.808252c0.506012,-0.81024 1.113907,-2.077978 1.025452,-3.029125c-0.058807,-0.632734 -0.405045,-1.110325 -0.930847,-1.467207c-0.853699,-0.579573 -1.776428,-0.512022 -2.808243,-0.504854c-1.06601,0.007425 -1.960144,0.262201 -2.966019,0.615316c-2.769669,0.972248 -5.380219,2.365444 -8.014557,3.660192c-1.946671,0.956751 -3.66539,2.460205 -5.758377,3.029125c-1.257233,0.341738 -3.076843,1.186007 -3.896866,0.173544c-0.798172,-0.985424 0.457779,-2.505844 0.946594,-3.675943c1.003967,-2.403259 2.631302,-4.509459 4.007278,-6.720619c1.542084,-2.478329 3.352142,-4.781727 4.764572,-7.336037c0.69397,-1.255068 1.56691,-2.499937 1.814346,-3.91262c0.177719,-1.014757 0.208069,-2.162947 -0.268204,-3.07648c-0.273376,-0.524341 -0.781372,-0.999712 -1.356796,-1.135922c-1.040955,-0.246409 -2.193283,0.212973 -3.171082,0.646819c-1.436874,0.63758 -3.377274,2.036027 -4.464844,3.17109c-3.696945,3.858702 -6.684265,7.252229 -10.191986,10.838714c-1.200562,1.227552 -2.813004,3.417913 -4.385925,2.729343c-1.08902,-0.476698 -0.863403,-2.276085 -0.725723,-3.43932c0.418015,-3.532261 1.171448,-7.159337 1.577667,-10.759452c0.191528,-1.697622 0.555435,-3.545692 0.410202,-5.111649c-0.080139,-0.863906 -0.176407,-1.690403 -0.678436,-2.398057c-0.356827,-0.503031 -1.078583,-0.773537 -1.68808,-0.867743c-0.126205,-0.015348 -0.252426,-0.024536 -0.368546,-0.027969l0.00621,-0.004165l0,-0.000005zm-18.346405,34.819288c-1.135056,0 -2.242859,0.107082 -3.313095,0.315533s-2.124588,0.487549 -3.107986,0.883495c-0.022125,0.008896 -0.032913,0.045967 -0.054932,0.054958c0.010864,0.029091 0.028229,0.073967 0.039169,0.10281c1.834763,4.825092 4.027527,9.740654 7.383499,13.694168c3.376053,3.977345 7.726791,7.143181 12.386597,9.56699c0.024887,0.01292 0.083572,0.044022 0.108551,0.056824c0.066864,-0.090084 0.124405,-0.176727 0.189316,-0.268204c0.590775,-0.8326 1.098648,-1.730034 1.514557,-2.666233c0.415878,-0.936203 0.743454,-1.915623 0.962357,-2.934467c0.218948,-1.018848 0.331299,-2.074799 0.331299,-3.155338s-0.11235,-2.136494 -0.331299,-3.155338s-0.546509,-1.998264 -0.962357,-2.934464c-0.415894,-0.936203 -0.923782,-1.833683 -1.514557,-2.666241c-0.59079,-0.832603 -1.259979,-1.595387 -2.003677,-2.303394s-1.555054,-1.362297 -2.429611,-1.924759s-1.809052,-1.039742 -2.792435,-1.435699c-0.983414,-0.395947 -2.022003,-0.706596 -3.092239,-0.915051s-2.17804,-0.315533 -3.313095,-0.315533l-0.000061,-0.000061l0,0.000004z"/>
    <path id="path3910-4" fill="#ffffff" d="m166.682816,63.784958c0.302994,-0.564072 0.5625,-1.101742 0.820374,-1.690353c0.643402,-1.468418 1.144318,-3.00898 1.483017,-4.606792c0.169373,-0.798935 0.307602,-1.620281 0.394409,-2.445415c0.086823,-0.825081 0.126221,-1.66132 0.126221,-2.508514c0,-0.847149 -0.039383,-1.683491 -0.126221,-2.508522c-0.086807,-0.824986 -0.225037,-1.630932 -0.394409,-2.429611c-0.33873,-1.597408 -0.839615,-3.139133 -1.483017,-4.606796s-1.420959,-2.875748 -2.334946,-4.180794c-0.913986,-1.305107 -1.957458,-2.518921 -3.107971,-3.628639s-2.417664,-2.116055 -3.77066,-2.997574c-1.352966,-0.881525 -2.78569,-1.635576 -4.307007,-2.256094c-1.521393,-0.620516 -3.124649,-1.093262 -4.780365,-1.419901c-0.827866,-0.163332 -1.66925,-0.294926 -2.524277,-0.378641s-1.725189,-0.126213 -2.603119,-0.126213s-1.748123,0.042498 -2.603149,0.126213s-1.696411,0.215309 -2.524261,0.378641c-1.431931,0.282507 -2.918655,0.710835 -4.251831,1.214781c0.16153,2.001795 0.723145,5.083368 1.583572,7.393587c0.022064,-0.008984 0.042953,-0.016739 0.065079,-0.025635c0.983414,-0.395947 2.021988,-0.706593 3.092239,-0.915051s2.17804,-0.315533 3.31311,-0.315533s2.242859,0.107079 3.313095,0.315533s2.108826,0.519093 3.092239,0.915051c0.983398,0.395947 1.917877,0.873196 2.792435,1.435703c0.874557,0.562458 1.685928,1.216747 2.429611,1.924759s1.412857,1.470791 2.003677,2.303398c0.590775,0.832603 1.098663,1.73003 1.514557,2.666233c0.415894,0.936203 0.743454,1.915619 0.962357,2.934464c0.218964,1.018848 0.331299,2.074802 0.331299,3.155338s-0.112335,2.136494 -0.331299,3.155338s-0.546509,1.998264 -0.962357,2.934467c-0.415894,0.936203 -0.923782,1.833683 -1.514557,2.666237c-0.064911,0.091476 -0.128372,0.176144 -0.195236,0.266228c3.46553,1.595791 7.242645,2.589302 10.497437,3.254086l-0.000046,0.000023z"/>
   </g>
   <g id="svg_2">
    <path id="path3940-7" fill="#171717" d="m40.209728,52.743298c-1.051418,0 -1.888123,0.859074 -1.888123,1.934959l0,21.721478c0,1.07589 0.836754,1.934959 1.888123,1.934959c1.051418,0 1.903748,-0.85907 1.903748,-1.934959l0,-21.721478c0,-1.075886 -0.852329,-1.934959 -1.903748,-1.934959zm7.380806,0c-1.051418,0 -1.903751,0.859074 -1.903751,1.934959l0,21.721478c0,1.07589 0.852333,1.934959 1.903751,1.934959s1.888119,-0.85907 1.888119,-1.934959l0,-2.777603l2.933655,-2.808807l5.85181,6.959862c0.557068,0.72599 1.933613,0.679459 2.574718,0.10923c0.701828,-0.624138 0.588337,-1.926781 0.031208,-2.652771l-5.648582,-7.100182l5.414894,-5.196175c0.854378,-0.854378 0.658684,-1.998524 -0.062416,-2.621559c-0.904469,-0.781425 -1.971119,-0.556816 -2.637135,0.10923l-8.457897,7.97403l0,-13.716488c0,-1.075878 -0.83675,-1.934959 -1.888119,-1.934959l-0.000252,-0.000248l-0.000004,0.000004zm-44.457121,1.420033c-0.895324,0 -1.622869,0.767143 -1.622869,1.732128s0.727544,1.747707 1.622869,1.747707l6.600832,0l0,18.88121c0,1.010262 0.836752,1.81012 1.888121,1.81012c1.051418,0 1.90375,-0.799858 1.90375,-1.81012l0,-18.88121l6.850505,0c0.895325,0 1.622869,-0.782722 1.622869,-1.747707s-0.727545,-1.732128 -1.622869,-1.732128l-17.242858,0l-0.00035,0zm68.270349,5.508274c-5.369446,0 -9.721737,4.243328 -9.721737,9.472057s4.352001,9.456581 9.721737,9.456581c5.369446,0 9.721733,-4.227745 9.721733,-9.456581s-4.351982,-9.472057 -9.721733,-9.472057zm32.551262,0.109234c-0.558113,-0.008495 -1.112541,0.030857 -1.654083,0.140438c-0.994682,0.201286 -1.96067,0.585682 -2.840019,1.092316c-0.695885,0.400944 -1.888115,1.31078 -1.888115,1.31078s-1.227585,-1.724583 -3.526672,-2.340626c-0.505386,-0.135414 -1.026154,-0.273571 -1.544868,-0.277729c-0.946617,-0.007591 -1.930168,0.076294 -2.824394,0.386959c-1.029152,0.357555 -2.761971,1.747707 -2.761971,1.747707l0,-0.124836c0,-1.082779 -0.836746,-1.732128 -1.888115,-1.732128c-1.292709,0 -1.888123,0.86776 -1.888123,1.950539l0,14.450027c0,1.082771 0.836746,1.950531 1.888123,1.950531c1.051414,0 1.903748,-0.86776 1.903748,-1.950531l0,-9.237869c0,-1.363159 0.858864,-2.567192 2.012955,-3.292583c0.497734,-0.312817 1.335899,-0.442955 1.91938,-0.514919c0.635117,-0.078373 1.194931,-0.070435 2.091003,0.140442c1.096901,0.302094 2.293884,1.630852 2.293884,3.651451l0,9.253349c0,1.082771 0.836746,1.950539 1.888123,1.950539c1.051422,0 1.903755,-0.867767 1.903755,-1.950539l0,-9.690269c0,-0.963036 0.953445,-2.164116 1.732124,-2.730824c0.698822,-0.508572 1.554512,-0.686539 2.418724,-0.702171c0.703529,-0.012741 1.391571,0.018227 2.059799,0.468136c0.501534,0.337677 0.966927,0.869301 1.24836,1.404404c0.327446,0.622589 0.468132,0.825813 0.468132,1.529243c0,0.04129 0.008392,0.075966 0.015579,0.10923l0,9.612381c0,1.082771 0.836746,1.950531 1.888123,1.950531c1.051414,0 1.903748,-1.04203 1.903748,-1.950531l0,-10.290489c0,-1.888275 -0.639664,-2.934101 -1.185944,-3.644119c-0.550278,-0.680206 -1.280266,-1.2164 -2.028587,-1.669704c-0.602158,-0.364754 -1.2612,-0.668579 -1.950539,-0.811436c-0.541039,-0.112106 -1.095963,-0.178768 -1.654076,-0.187252l-0.000053,-0.00045l0,0.000004zm-76.429638,0.015575c-5.640093,0 -9.222387,4.243328 -9.222387,9.472065s3.930639,9.300293 9.300285,9.300293c3.877016,0 5.398413,-0.67038 7.068724,-2.340675c0.565506,-0.565521 1.057911,-2.031738 0.23407,-2.855659c-0.652447,-0.652451 -1.894913,-0.407684 -2.387466,-0.046783c-1.485649,1.088417 -2.933399,1.856956 -4.915445,1.856956c-2.798126,0 -4.928679,-1.991585 -5.055861,-4.338051l10.658005,0c1.227787,0 1.751503,-0.32679 2.184631,-0.655388c0.341297,-0.258919 0.764595,-1.132057 0.764595,-1.560448c0,-4.647747 -3.294075,-8.832409 -8.629169,-8.832409l0.000027,0.000099l-0.000008,0zm43.848423,3.23016c3.290726,0 5.961174,2.770218 5.961174,6.194862c0,3.424805 -2.670197,6.210846 -5.961174,6.210846c-3.290726,0 -5.961166,-2.785797 -5.961166,-6.210846c0,-3.424805 2.670189,-6.194862 5.961166,-6.194862zm-44.098095,0.031212c3.212631,0 4.681353,2.278648 4.681353,4.291267l-9.456581,0c0,-1.950005 1.655275,-4.291267 4.774981,-4.291267l0.000248,0z"/>
    <path id="path3981-8" fill="#171717" d="m62.025082,83.288185c-0.999542,0 -1.794548,0.806992 -1.794548,1.810127l0,7.927086c-1.248112,-1.673203 -3.168331,-2.976486 -6.116962,-2.871223c-5.366451,0.191559 -9.284809,3.74398 -9.284809,9.409637c0,5.228638 3.66539,9.331749 9.035137,9.331749c3.085594,0 5.076832,-1.446701 6.366634,-3.198898l0,1.24836c0,1.003136 0.79496,1.81012 1.794548,1.81012c0.999527,0 1.810123,-0.806984 1.810123,-1.81012l0,-21.846313c0,-1.003136 -0.810596,-1.810127 -1.810123,-1.810127l0,-0.000397zm-41.69525,0.873856c-0.999538,0 -1.794542,0.853127 -1.794542,1.91938l0,20.691826c0,1.066208 0.794954,1.91938 1.794542,1.91938c0.999537,0 1.810123,-0.853127 1.810123,-1.91938l0,-20.691826c0,-1.066193 -0.810587,-1.91938 -1.810123,-1.91938zm111.7932,5.851814c-1.247696,0.04789 -2.54985,0.207024 -3.667084,0.764587c-0.910202,0.454292 -1.747704,1.154732 -2.293877,2.012962c-0.500198,0.786064 -0.790161,1.752342 -0.780228,2.683975c0.009979,0.93766 0.307777,1.91378 0.842644,2.683975c0.541237,0.779373 1.413887,1.293549 2.247055,1.747704c1.132401,0.617241 2.440842,0.834747 3.651443,1.279572c0.952042,0.349808 2.079208,0.421524 2.840027,1.092316c0.438538,0.38665 0.810333,0.960434 0.827011,1.544868c0.018066,0.630669 -0.379669,1.180557 -0.858276,1.59166c-0.563156,0.483719 -1.536072,0.514977 -2.278259,0.530556c-0.867767,0.018227 -1.562393,-0.120781 -2.387466,-0.390114c-0.545074,-0.177925 -1.010666,-0.426346 -1.529236,-0.671021c-0.421478,-0.198837 -0.80085,-0.480354 -1.232788,-0.655388c-0.419434,-0.169983 -0.869408,-0.474594 -1.310783,-0.374512c-0.484756,0.10994 -0.900108,0.531502 -1.107933,0.983109c-0.176575,0.383728 -0.09256,0.652557 0.062416,1.045532c0.202568,0.513634 0.665527,0.918045 1.107933,1.24836c0.670723,0.500793 1.649101,0.91111 2.44989,1.154739c1.216217,0.370003 2.255493,0.578392 3.526627,0.56176c1.307724,-0.017075 2.610718,-0.096214 3.838715,-0.546188c1.139145,-0.417374 1.882568,-1.05806 2.543549,-2.075371c0.59671,-0.918442 0.815338,-1.809166 0.749008,-2.902435c-0.044586,-0.735687 -0.067032,-1.634453 -0.45253,-2.262627c-0.434647,-0.708321 -1.141693,-1.314774 -1.841324,-1.763283c-0.977661,-0.626778 -1.955124,-0.879997 -3.027283,-1.326363c-0.842224,-0.350677 -1.712982,-0.652344 -2.543549,-1.0299c-0.525223,-0.238731 -1.143005,-0.366287 -1.544876,-0.78022c-0.316055,-0.325577 -0.596313,-0.779373 -0.577332,-1.23278c0.02182,-0.521461 0.367905,-1.037544 0.780228,-1.35762c0.537323,-0.417076 1.286102,-0.531799 1.966156,-0.546188c0.619385,-0.013077 1.313766,0.169868 1.903748,0.35891c0.517822,0.165924 0.970276,0.50399 1.482452,0.686592c0.613495,0.218758 1.143311,0.573303 1.79454,0.561768c0.548889,-0.009689 1.251221,-0.076996 1.560455,-0.530556c0.295761,-0.433754 0.177917,-1.109291 -0.062408,-1.576027c-0.274811,-0.533699 -0.890884,-0.968628 -1.404419,-1.279564c-0.702972,-0.425644 -1.472061,-0.618393 -2.262619,-0.842644c-0.973877,-0.27626 -2.000122,-0.428955 -3.011658,-0.390114l0.000031,-0.000031zm-56.47084,0.015572c-5.369453,0 -9.721741,4.243332 -9.721741,9.472076s4.35199,9.456573 9.721741,9.456573c5.369446,0 9.721733,-4.227745 9.721733,-9.456573s-4.351982,-9.472076 -9.721733,-9.472076zm39.994484,0.046844c-5.640091,0 -9.237869,4.243332 -9.237869,9.472069s3.930641,9.300285 9.300293,9.300285c3.876999,0 5.398415,-0.670372 7.06871,-2.340675c0.565514,-0.565514 1.057922,-2.031731 0.23407,-2.855652c-0.652443,-0.652443 -1.894913,-0.407684 -2.387459,-0.046791c-1.485657,1.088425 -2.933403,1.856964 -4.915451,1.856964c-2.798126,0 -4.92868,-1.991585 -5.055862,-4.338058l10.658012,0c1.227783,0 1.751495,-0.326782 2.184624,-0.655388c0.341316,-0.258919 0.764603,-1.132065 0.764603,-1.560448c0,-4.647743 -3.278503,-8.832405 -8.613693,-8.832405l0.000023,0.000099zm40.556252,0.062416c-1.259308,-0.01622 -2.550095,0.101677 -3.745087,0.499344c-0.667267,0.222069 -1.370209,0.50779 -1.841324,1.0299c-0.360565,0.399574 -0.724609,0.950951 -0.639771,1.48246c0.075485,0.473053 0.317734,0.867409 0.951859,1.076683c1.141205,0.376656 1.915421,-0.334442 3.462646,-0.749016c1.741165,-0.466545 4.002045,-0.442284 5.43187,0.655388c0.983002,0.754608 1.347839,3.144279 1.388779,3.448563c-0.385025,-0.119682 -0.868362,-0.266472 -1.232788,-0.32769c-0.911591,-0.15313 -1.839539,-0.175049 -2.761963,-0.171654c-1.199234,0.004494 -2.423782,-0.006935 -3.589035,0.249672c-1.145554,0.252289 -2.345795,0.496033 -3.245743,1.24836c-0.815231,0.681519 -1.414841,1.711967 -1.716492,2.73082c-0.351944,1.188545 -0.315933,2.801727 0.156036,3.947914c0.528564,1.283615 1.548965,1.993439 2.761978,2.668404c1.16391,0.647652 2.569214,0.934273 3.901123,0.920692c1.599442,-0.016327 3.280502,-0.466148 4.618927,-1.341988c0.508743,-0.332901 1.139099,-1.295204 1.139099,-1.295204l-0.015564,0.79586c-0.027267,0.9543 0.810577,1.778915 1.81012,1.778915s1.79454,-0.792068 1.79454,-1.778915l0,-4.82177s-0.012085,-4.650345 -0.405716,-7.037758c-0.183685,-1.113892 -1.028702,-2.258934 -1.825714,-3.058479c-0.689636,-0.691849 -1.464905,-1.005531 -2.293869,-1.295204c-1.3078,-0.456985 -2.718781,-0.637413 -4.103973,-0.655296l0.000061,0zm-121.450523,0.078026c-0.761398,0.014282 -1.664116,0.082718 -2.247047,0.280884c-1.153687,0.392349 -2.964857,1.654076 -2.964857,1.654076l0,-0.12484c0,-0.630867 -0.197601,-1.747704 -1.763287,-1.747704c-1.289455,0 -1.685287,1.055023 -1.685287,2.137787l0,14.450027c0,1.082787 0.836752,1.950539 1.888123,1.950539c1.051418,0 1.903751,-0.86776 1.903751,-1.950539l0,-9.237869c0,-1.363152 0.858864,-2.567177 2.012955,-3.292572c0.497725,-0.312828 1.335897,-0.442963 1.919382,-0.514931c0.635113,-0.078362 1.194927,-0.070427 2.091003,0.140442c1.099754,0.301895 2.652767,1.630661 2.652767,3.651459l0,9.253357c0,1.082779 0.83675,1.950531 1.888119,1.950531c1.051418,0 1.903748,-0.867752 1.903748,-1.950531l0,-9.627869c0,-2.114426 -0.602356,-3.523323 -1.435612,-4.603348c-0.856129,-1.109642 -2.380726,-1.897064 -3.745083,-2.262634c-0.034225,-0.009186 -0.074722,-0.013885 -0.109234,-0.015572c-0.531902,-0.125221 -1.085773,-0.13604 -1.607288,-0.140442c-0.205242,-0.001495 -0.448391,-0.00499 -0.702179,0l0.000027,-0.000252zm61.918686,0c-0.761398,0.014282 -1.664116,0.082718 -2.247047,0.280884c-1.153679,0.392349 -2.964851,1.654076 -2.964851,1.654076l0,-0.12484c0,-0.630867 -0.197601,-1.747704 -1.763283,-1.747704c-1.289467,0 -1.685287,1.055023 -1.685287,2.137787l0,14.450027c0,1.082787 0.836746,1.950539 1.888115,1.950539c1.051422,0 1.903748,-0.86776 1.903748,-1.950539l0,-9.237869c0,-1.363152 0.858879,-2.567177 2.012955,-3.292572c0.497734,-0.312828 1.335892,-0.442963 1.919388,-0.514931c0.635117,-0.078362 1.194931,-0.070427 2.091003,0.140442c1.099754,0.301895 2.652763,1.630661 2.652763,3.651459l0,9.253357c0,1.082779 0.836746,1.950531 1.888115,1.950531c1.05143,0 1.903755,-0.867752 1.903755,-1.950531l0,-9.627869c0,-2.114426 -0.602364,-3.523323 -1.435616,-4.603348c-0.856117,-1.109642 -2.38073,-1.897064 -3.745087,-2.262634c-0.034203,-0.009186 -0.074715,-0.013885 -0.10923,-0.015572c-0.531898,-0.125221 -1.085762,-0.13604 -1.607285,-0.140442c-0.205238,-0.001495 -0.448402,-0.00499 -0.702187,0l0.000031,-0.000252zm47.375298,0.124832c-0.999542,0 -1.79454,0.792068 -1.79454,1.778915l0,14.793076c0,0.986855 0.794952,1.778915 1.79454,1.778915c0.999527,0 1.81012,-0.792061 1.81012,-1.778915l0,-14.793076c0,-0.986847 -0.810593,-1.778915 -1.81012,-1.778915zm-28.649879,3.011642c3.212631,0 4.681351,2.263039 4.681351,4.275635l-9.472061,0c0,-1.949974 1.67086,-4.275635 4.790611,-4.275635l0.000099,0zm-39.775764,0.031212c3.290718,0 5.961166,2.770218 5.961166,6.19487c0,3.424805 -2.670197,6.210846 -5.961166,6.210846c-3.290733,0 -5.961174,-2.785789 -5.961174,-6.210846c0,-3.424797 2.670189,-6.19487 5.961174,-6.19487zm-21.346977,0.062416c3.29073,0 5.96117,2.770218 5.96117,6.194878c0,3.424797 -2.545357,5.836334 -5.836334,5.836334c-3.290733,0 -5.836338,-2.411285 -5.836338,-5.836334c0,-3.424805 2.420521,-6.194878 5.711502,-6.194878zm102.085945,6.366638c1.021347,-0.056702 2.110031,0.077408 3.120895,0.23407c0.506897,0.078575 1.221466,0.213394 1.856949,0.3433c0.005524,0.090469 0.094147,1.612335 -0.187256,2.32505c-0.380981,0.965073 -0.987503,2.045708 -1.888107,2.590347c-0.97995,0.592621 -2.319168,0.722092 -3.464203,0.702179c-0.910904,-0.015831 -1.885315,-0.227997 -2.621567,-0.764603c-0.683746,-0.498405 -1.085815,-1.169662 -1.154724,-2.012955c-0.081131,-0.993134 0.177536,-1.897545 0.936264,-2.543556c0.885941,-0.754211 2.240067,-0.809341 3.401794,-0.873856l-0.000046,0.000023z"/>
   </g>
  </g>
 </g>
</svg>